<svg xmlns="http://www.w3.org/2000/svg" viewBox="0 0 15.875 15.875" height="60" width="60">
  <g stroke="#66e192">
    <path d="M7.303 1.014A.519.519 0 017.823.5a.519.519 0 01.518.52.519.519 0 01-.517.518.519.519 0 01-.521-.515M.555 8.02a.519.519 0 01.521-.514.519.519 0 01.517.519.519.519 0 01-.516.519.519.519 0 01-.522-.515M14.31 8.013a.519.519 0 01.52-.515.519.519 0 01.517.519.519.519 0 01-.516.519.519.519 0 01-.522-.515M7.303 14.76a.519.519 0 01.52-.515.519.519 0 01.518.519.519.519 0 01-.517.519.519.519 0 01-.521-.515M7.303 8.013a.519.519 0 01.52-.515.519.519 0 01.518.519.519.519 0 01-.517.519.519.519 0 01-.521-.515M.555 1.006A.519.519 0 011.076.49a.519.519 0 01.517.519.519.519 0 01-.516.519.519.519 0 01-.522-.515M.555 14.768a.519.519 0 01.521-.515.519.519 0 01.517.52.519.519 0 01-.516.518.519.519 0 01-.522-.515M14.31 14.76a.519.519 0 01.52-.515.519.519 0 01.517.519.519.519 0 01-.516.519.519.519 0 01-.522-.515" fill="#00f000" stroke-width=".098" stroke-linecap="round" stroke-linejoin="round"/>
    <path d="M7.822 1.014L1.074 8.021l6.748 6.747 7.006-6.747H7.822z" fill="none" stroke-width=".2"/>
    <path d="M1.074 1.014h6.748l7.006 7.007H7.822l7.006 6.747H1.074zM14.828 8.02v6.748" fill="none" stroke-width=".2"/>
  </g>
</svg>
